<svg xmlns="http://www.w3.org/2000/svg" width="24" height="24" viewBox="0 0 24 24" fill="none" stroke="#FF0000" stroke-width="2" stroke-linecap="round" stroke-linejoin="round">
  <path d="M20.53 3.47A2.02 2.02 0 0 1 22 5.02v13.96a2.02 2.02 0 0 1-1.47 1.55l-2.73.73-2.73.73a2 2 0 0 1-1.07 0l-2.73-.73-2.73-.73a2.02 2.02 0 0 1-1.47-1.55V5.02A2.02 2.02 0 0 1 8.53 3.47l2.73-.73 2.73-.73a2 2 0 0 1 1.07 0l2.73.73z"></path>
  <path d="m8 10 4.5 3L8 16V10Z"></path>
  <path d="m16 8-3 6"></path>
  <path d="m13 14 3-6"></path>
  <path d="M4 11h2"></path>
  <path d="M2 14h2"></path>
  <path d="M4 17h2"></path>
</svg>